Daybreakers 2010 TeleSync HQ XviD

Format                           : AVI 
Format/Info                      : Audio Video Interleave 
Format profile                   : OpenDML 
File size                        : 1.22 GiB 
Duration                         : 1h 31mn 
Overall bit rate                 : 1 906 Kbps 
Writing application              : AVI-Mux GUI 1.17.7, Aug  8 2006  20:59:17 

Video 
Format                           : MPEG-4 Visual 
Format settings, BVOP            : Yes 
Format settings, QPel            : No 
Format settings, GMC             : No warppoints 
Format settings, Matrix          : Default (H.263) 
Muxing mode                      : Packed bitstream 
Codec ID                         : DX50 
Codec ID/Hint                    : DivX 5 
Duration                         : 1h 31mn 
Bit rate                         : 1 642 Kbps 
Width                            : 652 pixels 
Height                           : 332 pixels 
Display aspect ratio             : 1.964 
Frame rate                       : 25.000 fps 
Resolution                       : 24 bits 
Colorimetry                      : 4:2:0 
Scan type                        : Progressive 
Bits/(Pixel*Frame)               : 0.303 
Stream size                      : 1.05 GiB (86%) 
Writing library                  : DivX 6.2.5 (UTC 2006-06-16) 

Audio 
Format                           : MPEG Audio 
Format version                   : Version 1 
Format profile                   : Layer 3 
Codec ID                         : 55 
Codec ID/Hint                    : MP3 
Duration                         : 1h 31mn 
Bit rate mode                    : Constant 
Bit rate                         : 256 Kbps 
Channel(s)                       : 2 channels 
Sampling rate                    : 48.0 KHz 
Resolution                       : 16 bits 
Stream size                      : 167 MiB (13%) 
Alignment                        : Aligned on interleaves 
Interleave, duration             : 24 ms (0.60 video frame) 
Interleave, preload duration     : 192 ms 
Writing library                  : LAME3.98 (alpha) 
                                                                      
Movie Information                                                    
-----------------                                                    
Release Year....: 2009(2010 for Public)                              
Genre...........: Action | Drama | Horror | Sci-Fi | Thriller        
Starring........: Ethan Hawke, Sam Neill, Willem Dafoe, Etc.          
IMDB............: http://www.imdb.com/title/tt0433362/                
Trailer.........: http://www.imdb.com/video/imdb/vi4267312409/        

